<?xml version="1.0" standalone="no"?>
<!DOCTYPE svg PUBLIC "-//W3C//DTD SVG 20010904//EN"
 "http://www.w3.org/TR/2001/REC-SVG-20010904/DTD/svg10.dtd">
<svg version="1.0" xmlns="http://www.w3.org/2000/svg"
 width="300.000000pt" height="300.000000pt" viewBox="0 0 300.000000 300.000000"
 preserveAspectRatio="xMidYMid meet">

<g transform="translate(0.000000,300.000000) scale(0.100000,-0.100000)"
fill="#000000" stroke="none">
<path d="M1430 2976 c-433 -154 -1057 -606 -1365 -987 l-66 -82 6 -71 c49
-568 248 -1202 511 -1627 61 -99 48 -92 229 -129 519 -108 1067 -101 1600 22
l91 20 34 52 c44 67 149 268 196 376 158 367 280 798 319 1135 25 214 25 216
-42 298 -247 303 -760 700 -1161 901 -87 43 -262 116 -278 116 -5 0 -38 -11
-74 -24z m111 -442 c17 -8 97 -29 177 -45 81 -17 170 -41 199 -54 65 -30 135
-93 158 -145 15 -33 24 -41 54 -45 143 -24 224 -99 337 -314 21 -41 55 -92 75
-113 32 -34 36 -43 29 -71 -3 -18 -2 -68 4 -112 5 -44 10 -138 10 -210 1 -118
-1 -134 -23 -175 -13 -25 -37 -60 -55 -78 -30 -32 -31 -36 -31 -120 0 -123
-30 -181 -171 -332 -58 -63 -113 -129 -121 -146 -13 -25 -25 -33 -65 -42 -27
-7 -101 -36 -166 -66 -141 -65 -187 -78 -273 -79 -50 0 -79 6 -122 26 l-57 26
-57 -26 c-108 -50 -220 -32 -425 67 -44 22 -103 44 -132 51 -43 9 -54 17 -65
41 -7 16 -56 75 -109 131 -158 169 -203 262 -182 377 8 43 7 46 -32 88 -85 92
-103 195 -73 412 9 69 14 143 10 165 -5 35 -2 44 21 65 14 14 56 79 92 145
105 189 194 269 322 289 29 5 39 14 59 51 31 58 90 111 157 141 29 13 118 37
198 53 79 16 157 36 173 44 37 20 48 20 84 1z"/>
<path d="M1469 2485 c-14 -7 -83 -25 -155 -38 -71 -14 -156 -35 -188 -48 -71
-26 -142 -88 -168 -146 -14 -32 -26 -44 -46 -48 -157 -30 -209 -72 -302 -244
-25 -45 -64 -110 -88 -143 -34 -47 -42 -65 -37 -86 3 -15 -1 -79 -10 -142 -29
-226 -16 -309 66 -395 48 -51 48 -52 38 -90 -29 -103 19 -208 162 -359 54 -57
104 -117 113 -134 11 -21 24 -31 49 -35 19 -3 90 -31 158 -62 197 -91 290
-101 400 -45 l40 21 56 -28 c45 -21 71 -27 122 -27 78 0 110 10 261 79 63 29
132 56 152 60 28 5 43 16 59 42 12 20 66 82 120 140 137 145 180 246 152 353
-9 33 -7 37 32 75 68 67 80 102 79 235 0 63 -4 169 -9 235 -7 110 -10 123 -35
151 -15 17 -51 74 -80 126 -98 178 -171 250 -268 263 -72 10 -79 13 -92 46
-46 109 -139 164 -346 203 -72 14 -148 32 -169 40 -21 9 -38 16 -39 16 0 -1
-13 -7 -27 -15z m128 -180 c14 -21 9 -54 -12 -70 -11 -9 -10 -16 6 -35 24 -32
24 -50 0 -50 -11 0 -28 15 -41 35 -29 46 -50 46 -50 -1 0 -28 -3 -35 -17 -32
-15 3 -19 16 -21 77 -2 41 0 81 3 89 8 22 113 11 132 -13z m-223 -1 c8 -21 9
-19 -37 -30 -49 -12 -48 -30 2 -26 56 3 64 -24 11 -38 -25 -7 -40 -17 -40 -26
0 -13 8 -15 50 -9 42 6 50 4 50 -9 0 -14 -17 -21 -101 -40 -26 -6 -27 -4 -43
65 -9 39 -16 77 -16 85 0 7 19 18 43 24 23 6 47 13 52 15 19 7 23 5 29 -11z
m406 -19 c21 -11 30 -23 30 -40 0 -30 -14 -32 -37 -5 -18 21 -43 27 -43 11 0
-6 14 -18 30 -28 35 -20 47 -52 30 -82 -24 -47 -130 -15 -130 39 0 13 7 20 20
20 11 0 20 -7 20 -15 0 -20 33 -36 51 -24 12 8 11 11 -6 21 -27 16 -65 55 -65
68 0 15 38 50 55 50 9 0 29 -7 45 -15z m-596 -136 c6 -54 4 -68 -9 -79 -13
-11 -24 -5 -79 46 -35 32 -63 64 -61 69 5 24 40 15 75 -20 l37 -36 -8 53 c-7
45 -6 55 8 66 21 15 26 1 37 -99z m751 71 c9 -14 -63 -150 -80 -150 -28 0 -26
22 11 90 36 66 55 83 69 60z m126 -87 c27 -20 49 -40 49 -44 0 -15 -20 -20
-39 -10 -16 9 -25 3 -57 -39 -41 -54 -42 -54 -63 -41 -12 8 -7 19 27 63 37 48
40 54 25 70 -13 15 -11 38 4 38 3 0 28 -17 54 -37z m-1037 -59 c43 -58 47 -67
34 -80 -13 -13 -21 -7 -66 52 -40 52 -49 71 -41 81 6 7 14 13 18 13 3 -1 28
-30 55 -66z m-89 -75 c80 -65 78 -83 -8 -77 l-60 5 31 -27 c18 -15 32 -31 32
-38 0 -27 -24 -19 -84 29 -81 65 -80 83 7 77 l60 -5 -33 28 c-21 18 -31 33
-27 43 4 9 9 16 12 16 3 0 34 -23 70 -51z m1266 -53 c-10 -17 -30 -53 -45 -80
-25 -43 -30 -46 -43 -33 -11 11 -12 19 -4 35 8 16 6 23 -10 38 -12 11 -29 18
-39 16 -23 -4 -48 25 -29 33 122 45 154 52 171 37 17 -14 17 -17 -1 -46z
m-640 -56 l34 -5 -27 -18 c-23 -16 -26 -22 -17 -44 13 -34 5 -39 -26 -19 -24
16 -27 16 -55 -4 -33 -24 -34 -23 -19 17 9 25 7 30 -18 50 l-28 23 38 0 c20 0
37 4 37 9 0 5 5 22 11 38 l11 28 13 -35 c10 -29 18 -36 46 -40z m-292 -18 c2
-78 -47 -133 -181 -202 -135 -71 -181 -125 -176 -207 3 -44 5 -48 31 -51 15
-2 27 -6 27 -10 0 -4 -18 -24 -40 -45 -43 -43 -65 -41 -55 3 7 34 -7 66 -34
75 -38 12 -20 149 24 185 8 7 15 27 15 46 0 22 6 37 19 43 10 6 21 24 24 40 8
41 39 58 123 69 85 12 143 40 181 87 24 30 29 32 35 17 3 -9 7 -32 7 -50z
m587 -28 c21 -9 68 -20 103 -25 73 -11 106 -28 117 -61 4 -13 18 -36 31 -52
16 -19 23 -38 20 -53 -2 -13 1 -27 8 -31 18 -10 45 -74 44 -102 0 -14 2 -35 6
-47 6 -17 1 -25 -24 -37 -31 -17 -36 -31 -32 -88 3 -37 -7 -35 -57 10 -44 40
-45 52 -6 52 34 0 42 54 17 111 -25 57 -71 96 -174 150 -95 50 -163 111 -172
155 -3 16 -3 49 0 72 l6 42 37 -40 c20 -22 54 -47 76 -56z m-998 -51 c18 -25
15 -57 -9 -87 -26 -33 -49 -32 -122 2 -52 24 -57 29 -45 44 12 17 16 16 67 -7
41 -19 57 -23 67 -14 25 21 15 36 -41 63 -50 23 -66 42 -49 59 9 9 117 -41
132 -60z m1454 20 c34 -39 29 -103 -8 -103 -11 0 -14 9 -12 36 2 22 -2 39 -9
41 -8 3 -13 -13 -15 -49 -3 -48 -6 -54 -32 -63 -25 -8 -31 -6 -52 18 -28 32
-31 78 -8 102 22 21 28 13 29 -37 0 -24 5 -43 13 -45 8 -3 12 10 12 44 0 27 5
54 12 61 17 17 53 15 70 -5z m-602 -262 c38 -12 93 -21 130 -21 71 0 110 -18
110 -49 0 -10 -6 -24 -14 -31 -8 -6 -12 -19 -9 -27 4 -10 2 -14 -4 -10 -13 8
-12 -42 1 -62 6 -10 5 -16 -3 -19 -9 -3 -9 -7 0 -18 9 -11 9 -14 0 -14 -9 0
-9 -5 -1 -20 8 -14 8 -20 0 -20 -7 0 -7 -7 1 -21 8 -17 8 -20 -1 -14 -9 5 -10
1 -5 -14 3 -11 3 -21 -2 -21 -4 0 -9 -17 -10 -37 -1 -21 -6 -39 -12 -41 -5 -2
-7 -10 -4 -18 3 -8 -4 -23 -16 -33 -11 -10 -21 -23 -21 -30 0 -6 -7 -11 -15
-11 -8 0 -15 -7 -15 -15 0 -8 -9 -15 -20 -15 -12 0 -20 -7 -20 -16 0 -10 -6
-14 -14 -11 -9 4 -17 -2 -21 -14 -4 -12 -13 -18 -20 -15 -8 3 -16 -5 -19 -20
-4 -14 -11 -22 -16 -19 -6 4 -13 0 -16 -9 -3 -8 -11 -13 -19 -10 -7 3 -15 -2
-19 -11 -3 -9 -10 -14 -15 -11 -5 3 -12 -1 -15 -10 -3 -8 -10 -12 -16 -9 -5 3
-10 2 -10 -4 0 -6 -8 -15 -19 -20 -26 -14 -81 -23 -81 -13 0 4 -10 9 -22 9
-13 1 -24 7 -26 13 -2 5 -10 10 -17 10 -7 0 -16 7 -19 16 -3 8 -10 13 -15 10
-5 -3 -12 1 -15 10 -3 8 -10 12 -16 9 -6 -3 -13 1 -16 10 -4 9 -13 14 -20 11
-9 -3 -14 2 -14 14 0 13 -7 20 -20 20 -14 0 -20 7 -20 21 0 18 -3 19 -15 9
-12 -10 -15 -7 -21 13 -3 15 -11 24 -19 21 -7 -3 -15 2 -19 11 -3 9 -10 13
-16 10 -5 -3 -10 1 -10 10 0 8 -6 18 -14 21 -9 3 -12 12 -9 21 4 11 2 14 -5 9
-8 -5 -12 0 -12 13 0 12 -5 21 -11 21 -6 0 -8 9 -4 20 4 12 2 20 -5 20 -7 0
-9 8 -5 20 4 12 2 20 -5 20 -8 0 -8 6 0 20 8 15 8 20 -1 20 -8 0 -8 4 1 15 10
12 9 15 -5 15 -15 0 -16 2 -4 17 11 13 11 17 1 21 -10 3 -10 7 -1 18 9 11 9
14 0 14 -9 0 -9 5 -1 20 6 11 9 24 6 28 -3 4 -1 14 4 21 5 9 0 23 -16 40 -50
53 -12 91 92 91 34 0 90 9 125 19 80 25 98 26 239 24 84 -1 132 -7 180 -22z
m456 -567 c66 -46 69 -50 56 -71 -6 -10 -25 -1 -71 31 -78 55 -75 52 -68 71 9
21 12 20 83 -31z m-1231 30 c26 -10 47 -61 35 -84 -12 -22 -29 -26 -32 -7 0 6
-2 17 -3 22 -2 6 -3 16 -4 23 0 6 -8 12 -16 12 -18 0 -18 1 1 -45 14 -33 14
-39 -1 -61 -21 -32 -59 -31 -90 2 -26 28 -31 58 -16 83 15 23 42 5 36 -22 -4
-15 -1 -28 10 -37 23 -19 31 -4 17 33 -15 42 -15 60 0 75 13 13 37 15 63 6z
m1129 -87 c16 -12 16 -14 2 -26 -9 -8 -19 -11 -23 -8 -11 12 -43 -14 -43 -35
0 -49 68 -79 89 -39 13 23 3 35 -16 19 -10 -8 -17 -8 -26 1 -9 10 -6 18 17 37
l28 25 24 -22 c32 -30 30 -54 -5 -90 -59 -59 -151 -22 -151 61 0 30 6 44 31
64 35 29 47 32 73 13z m-1002 -62 c-4 -7 -29 -36 -56 -65 -42 -45 -50 -50 -63
-37 -13 12 -7 22 42 76 46 48 60 59 71 50 8 -6 10 -17 6 -24z m88 -47 c0 -6
-14 -34 -30 -63 l-30 -53 36 -21 c29 -17 34 -24 24 -36 -10 -12 -19 -9 -61 16
-27 17 -49 33 -49 37 0 3 18 36 40 74 28 47 45 65 55 62 8 -4 15 -11 15 -16z
m773 -63 c20 -42 37 -77 37 -79 0 -2 -7 -7 -16 -10 -10 -4 -37 6 -65 24 l-49
30 20 -40 c11 -23 18 -45 15 -50 -14 -23 -33 -5 -68 65 -33 67 -35 76 -20 82
10 4 36 -4 65 -20 l49 -27 -22 41 c-17 34 -18 43 -7 50 21 14 22 13 61 -66z
m-613 -7 c0 -16 -53 -158 -60 -158 -3 0 -11 4 -19 9 -21 14 34 161 60 161 11
0 19 -5 19 -12z m404 -74 c40 -61 47 -77 35 -85 -20 -12 -26 -11 -33 6 -3 9
-18 15 -36 15 -23 0 -33 -6 -40 -25 -11 -28 -40 -34 -40 -9 0 77 33 174 59
174 3 0 28 -34 55 -76z m-329 44 c2 -13 6 -36 7 -53 3 -29 4 -28 19 15 12 36
21 46 41 48 24 3 26 0 33 -50 l8 -53 14 47 c15 52 22 61 42 49 11 -7 8 -25
-14 -90 -14 -44 -30 -81 -33 -81 -21 1 -38 25 -47 67 l-11 48 -18 -53 c-15
-44 -22 -53 -39 -50 -18 3 -23 14 -33 78 -17 101 -17 100 6 100 12 0 21 -8 25
-22z"/>
<path d="M1500 2275 c0 -10 10 -15 30 -15 20 0 30 5 30 15 0 10 -10 15 -30 15
-20 0 -30 -5 -30 -15z"/>
<path d="M2135 1947 c-12 -9 -14 -16 -7 -21 6 -3 16 3 22 14 13 24 10 25 -15
7z"/>
<path d="M865 1600 c-3 -5 -1 -10 4 -10 6 0 11 5 11 10 0 6 -2 10 -4 10 -3 0
-8 -4 -11 -10z"/>
<path d="M840 1540 c0 -5 5 -10 10 -10 6 0 10 5 10 10 0 6 -4 10 -10 10 -5 0
-10 -4 -10 -10z"/>
<path d="M2050 1730 c0 -5 5 -10 10 -10 6 0 10 5 10 10 0 6 -4 10 -10 10 -5 0
-10 -4 -10 -10z"/>
<path d="M2090 1670 c0 -5 5 -10 11 -10 5 0 7 5 4 10 -3 6 -8 10 -11 10 -2 0
-4 -4 -4 -10z"/>
<path d="M2120 1600 c0 -5 5 -10 10 -10 6 0 10 5 10 10 0 6 -4 10 -10 10 -5 0
-10 -4 -10 -10z"/>
<path d="M2140 1540 c0 -5 5 -10 10 -10 6 0 10 5 10 10 0 6 -4 10 -10 10 -5 0
-10 -4 -10 -10z"/>
<path d="M2145 1470 c3 -5 8 -10 11 -10 2 0 4 5 4 10 0 6 -5 10 -11 10 -5 0
-7 -4 -4 -10z"/>
<path d="M1305 1540 c-33 -11 -83 -20 -111 -20 -67 0 -114 -17 -114 -40 0 -38
71 -41 124 -5 24 16 45 23 59 19 16 -3 34 4 61 25 33 27 47 31 98 31 37 0 57
-4 53 -10 -3 -5 -26 -10 -51 -10 -26 0 -44 -5 -44 -11 0 -8 15 -10 45 -7 25 3
45 2 45 -3 0 -5 -10 -9 -22 -9 -13 0 -30 -5 -38 -10 -12 -8 -9 -10 13 -10 21
0 27 -5 28 -22 l0 -23 11 23 c15 31 28 27 28 -9 0 -34 24 -37 26 -3 1 10 2 24
3 29 1 6 11 -1 22 -15 20 -24 20 -24 14 -2 -5 19 -3 22 20 22 15 0 24 4 20 10
-3 6 -20 10 -37 10 -17 0 -28 3 -24 7 4 4 25 6 46 4 24 -1 40 2 40 8 0 6 -20
11 -45 11 -25 0 -45 5 -45 10 0 6 23 10 50 10 52 0 96 -16 119 -44 15 -18 51
-22 51 -6 0 6 19 -3 42 -20 50 -36 111 -42 127 -11 16 30 -9 42 -101 51 -46 4
-108 15 -138 24 -82 24 -296 21 -375 -4z"/>
<path d="M1255 1448 c-9 -37 1 -62 21 -54 13 5 15 2 11 -15 -3 -12 1 -36 10
-52 14 -28 14 -32 -3 -44 -34 -25 -52 -14 -72 42 l-10 30 -1 -31 c-1 -44 20
-85 42 -78 12 4 17 0 17 -14 0 -43 33 -114 66 -140 23 -18 44 -51 66 -105 72
-174 132 -171 204 10 20 50 37 77 57 88 34 20 55 61 64 120 5 39 9 45 24 40
14 -5 22 1 29 20 18 47 22 75 12 75 -5 0 -12 -13 -15 -29 -7 -31 -33 -46 -61
-35 -14 5 -16 13 -11 33 4 14 8 38 8 54 2 18 7 27 20 27 13 0 17 9 17 40 0 22
-4 40 -10 40 -5 0 -10 -10 -10 -21 0 -19 -4 -21 -30 -15 -29 5 -41 -6 -20 -19
18 -11 0 -25 -34 -25 -55 0 -106 -26 -106 -54 0 -55 -62 -62 -70 -7 -4 28 -11
35 -45 47 -22 7 -55 14 -72 14 -32 0 -43 12 -23 25 20 13 9 24 -18 19 -23 -5
-30 -1 -39 18 l-11 23 -7 -27z m115 -88 c0 -5 -2 -10 -4 -10 -3 0 -8 5 -11 10
-3 6 -1 10 4 10 6 0 11 -4 11 -10z m60 -11 c0 -5 -4 -9 -10 -9 -5 0 -10 7 -10
16 0 8 5 12 10 9 6 -3 10 -10 10 -16z m169 14 c-5 -32 2 -44 24 -37 12 3 30
13 40 22 21 19 31 11 22 -18 -4 -14 -12 -19 -23 -16 -9 3 -23 2 -30 -3 -11 -6
-10 -10 3 -15 10 -3 15 -12 11 -21 -4 -10 1 -15 14 -15 22 0 26 -20 8 -38 -9
-9 -8 -12 5 -12 48 0 -19 -55 -82 -66 -19 -4 -48 -2 -65 4 -20 8 -34 8 -40 2
-14 -14 -71 -12 -109 4 -39 16 -78 56 -55 56 11 0 14 7 10 25 -4 21 0 25 19
25 17 0 20 3 11 12 -9 9 -7 14 6 24 18 14 19 13 -28 18 -8 0 -17 12 -18 25
l-4 24 34 -21 c27 -17 41 -20 65 -13 28 8 31 6 45 -26 16 -33 15 -34 -6 -31
-29 4 -26 -11 11 -57 l32 -39 35 40 c44 49 46 67 9 58 -27 -7 -28 -6 -10 13 9
11 17 27 17 37 0 13 5 16 21 11 15 -5 19 -4 15 4 -4 6 -4 16 -1 21 7 12 16 13
14 3z m56 -3 c-3 -5 -10 -10 -16 -10 -5 0 -9 5 -9 10 0 6 7 10 16 10 8 0 12
-4 9 -10z m-38 -257 c7 -31 -2 -66 -43 -150 -37 -78 -67 -99 -101 -72 -42 35
-100 204 -81 235 4 5 54 9 112 9 102 0 107 -1 113 -22z"/>
<path d="M1414 1072 c-8 -22 -5 -37 18 -81 15 -29 28 -59 28 -65 0 -19 35 -47
51 -41 23 9 86 153 81 186 -3 23 -7 27 -17 19 -8 -7 -16 -7 -19 -2 -6 9 -60 7
-76 -3 -5 -3 -11 1 -14 7 -5 10 -7 10 -12 0 -4 -9 -10 -10 -18 -3 -9 8 -15 3
-22 -17z"/>
<path d="M1141 1363 c-22 -49 -25 -126 -6 -189 31 -105 47 -133 85 -145 19 -7
63 -25 98 -40 34 -16 62 -24 62 -19 0 10 -69 60 -82 60 -19 0 -97 43 -93 50 3
5 -1 14 -8 22 -8 7 -12 19 -9 27 3 8 1 11 -4 8 -12 -7 -18 48 -18 161 0 50 -3
92 -7 92 -3 0 -11 -12 -18 -27z"/>
<path d="M1837 1283 c1 -63 -3 -113 -9 -120 -6 -7 -7 -13 -3 -13 4 0 3 -6 -3
-12 -6 -7 -11 -16 -12 -20 -11 -45 -18 -52 -84 -82 -39 -18 -80 -43 -90 -55
-24 -27 -16 -27 37 1 23 11 65 29 92 39 53 19 83 53 84 99 1 15 5 30 10 35 17
17 31 123 21 151 -5 13 -9 28 -8 32 3 10 -21 52 -30 52 -4 0 -6 -48 -5 -107z"/>
<path d="M1758 1213 c7 -3 16 -2 19 1 4 3 -2 6 -13 5 -11 0 -14 -3 -6 -6z"/>
<path d="M1250 1120 c0 -5 5 -10 10 -10 6 0 10 5 10 10 0 6 -4 10 -10 10 -5 0
-10 -4 -10 -10z"/>
<path d="M1730 1120 c0 -5 4 -10 9 -10 6 0 13 5 16 10 3 6 -1 10 -9 10 -9 0
-16 -4 -16 -10z"/>
<path d="M1270 1090 c0 -5 9 -14 21 -20 19 -11 20 -10 9 9 -11 22 -30 29 -30
11z"/>
<path d="M1705 1080 c-10 -11 -13 -20 -8 -20 13 0 38 29 31 35 -3 3 -13 -4
-23 -15z"/>
<path d="M1650 660 c0 -13 5 -18 14 -14 8 3 12 12 9 20 -8 21 -23 17 -23 -6z"/>
</g>
</svg>
